<svg width="1280" height="720" xmlns="http://www.w3.org/2000/svg" xmlns:xlink="http://www.w3.org/1999/xlink" overflow="hidden"><g><rect x="0" y="0" width="1280" height="720" fill="#FFFFFF"/><path d="M737 295.168C737 266.356 760.356 243 789.168 243L1094.83 243C1123.64 243 1147 266.356 1147 295.168L1147 503.832C1147 532.644 1123.64 556 1094.83 556L789.168 556C760.356 556 737 532.644 737 503.832Z" stroke="#000000" stroke-width="2" stroke-miterlimit="8" fill="#FFFFFF" fill-rule="evenodd"/><rect x="54" y="571" width="265" height="35" stroke="#042433" stroke-width="2" stroke-miterlimit="8" fill="#FFF3CD"/><text font-family="Malgun Gothic,Malgun Gothic_MSFontService,sans-serif" font-weight="700" font-size="21" transform="translate(102.395 596)">User Embedding</text><path d="M0.389688-1.27512 145.564 43.0915 144.785 45.6417-0.389688 1.27512ZM145.068 40.1516 151.55 46.3151 142.73 47.8023Z" transform="matrix(1 0 0 -1 489.5 112.815)"/><path d="M792.31 114.09 647.484 69.7275 648.265 67.1777 793.091 111.54ZM647.978 72.6677 641.5 66.5001 650.321 65.0185Z"/><text font-family="Malgun Gothic,Malgun Gothic_MSFontService,sans-serif" font-weight="700" font-size="21" transform="translate(783.556 27)">Training</text><text font-family="Malgun Gothic,Malgun Gothic_MSFontService,sans-serif" font-weight="700" font-size="21" transform="translate(727.883 63)">Mean Squard Error</text><text font-family="Malgun Gothic,Malgun Gothic_MSFontService,sans-serif" font-weight="700" font-size="21" transform="translate(1049.87 46)">Target</text><path d="M976.589 39.0002 678.666 39 678.666 37 976.589 37.0002ZM680 42 672 38 680 34Z"/><rect x="111" y="662" width="151" height="36" stroke="#000000" stroke-width="2" stroke-linejoin="round" stroke-miterlimit="10" fill="#D9D2E9"/><text font-family="Malgun Gothic,Malgun Gothic_MSFontService,sans-serif" font-weight="700" font-size="21" transform="translate(152.395 688)">UserID</text><rect x="716" y="662" width="151" height="36" stroke="#000000" stroke-width="2" stroke-linejoin="round" stroke-miterlimit="10" fill="#F8B0B2"/><text font-family="Malgun Gothic,Malgun Gothic_MSFontService,sans-serif" font-weight="700" font-size="21" transform="translate(754.65 688)">WineID</text><path d="M0.142403-0.989809 297.822 41.837 297.537 43.8167-0.142403 0.989809ZM296.931 38.6779 304.28 43.7764 295.792 46.5964Z" transform="matrix(1 0 0 -1 336 192.776)"/><rect x="223" y="193" width="227" height="35" stroke="#042433" stroke-width="2" stroke-miterlimit="8" fill="#FFF3CD"/><text font-family="Malgun Gothic,Malgun Gothic_MSFontService,sans-serif" font-weight="700" font-size="21" transform="translate(280.753 218)">MF Output</text><rect x="262" y="662" width="303" height="36" stroke="#000000" stroke-width="2" stroke-linejoin="round" stroke-miterlimit="10" fill="#D9D2E9"/><text font-family="Malgun Gothic,Malgun Gothic_MSFontService,sans-serif" font-weight="700" font-size="21" transform="translate(300.803 688)">User Side</text><text font-family="Malgun Gothic,Malgun Gothic_MSFontService,sans-serif" font-weight="700" font-size="21" transform="translate(396.637 688)">-</text><text font-family="Malgun Gothic,Malgun Gothic_MSFontService,sans-serif" font-weight="700" font-size="21" transform="translate(405.47 688)">Information</text><rect x="867" y="662" width="302" height="36" stroke="#000000" stroke-width="2" stroke-linejoin="round" stroke-miterlimit="10" fill="#F8B0B2"/><text font-family="Malgun Gothic,Malgun Gothic_MSFontService,sans-serif" font-weight="700" font-size="21" transform="translate(902.277 688)">Wine Side</text><text font-family="Malgun Gothic,Malgun Gothic_MSFontService,sans-serif" font-weight="700" font-size="21" transform="translate(1004.61 688)">-</text><text font-family="Malgun Gothic,Malgun Gothic_MSFontService,sans-serif" font-weight="700" font-size="21" transform="translate(1013.44 688)">Information</text><text font-family="Malgun Gothic,Malgun Gothic_MSFontService,sans-serif" font-style="oblique" font-weight="700" font-size="21" transform="translate(577.616 200)">Concatenate</text><rect x="832" y="193" width="226" height="35" stroke="#042433" stroke-width="2" stroke-miterlimit="8" fill="#FFF3CD"/><text font-family="Malgun Gothic,Malgun Gothic_MSFontService,sans-serif" font-weight="700" font-size="21" transform="translate(857.083 218)">Attention Output</text><path d="M1.33333-5.48514e-06 1.33341 18.8536-1.33326 18.8537-1.33333 5.48514e-06ZM4.00007 17.5203 0.000104987 25.5203-3.99993 17.5203Z" transform="matrix(1 0 0 -1 934.5 357.02)"/><path d="M945.158 193.766 647.457 150.939 647.742 148.96 945.443 191.787ZM648.349 154.098 641 149 649.488 146.18Z"/><rect x="357" y="571" width="265" height="35" stroke="#082837" stroke-width="2" stroke-miterlimit="8" fill="#FFF3CD"/><text font-family="Malgun Gothic,Malgun Gothic_MSFontService,sans-serif" font-weight="700" font-size="21" transform="translate(402.25 596)">Wine Embedding</text><rect x="166" y="344" width="341" height="35" stroke="#082837" stroke-width="2" stroke-miterlimit="8" fill="#FFF3CD"/><text font-family="Malgun Gothic,Malgun Gothic_MSFontService,sans-serif" font-weight="700" font-size="21" transform="translate(289.753 370)">MF Layer</text><rect x="660" y="571" width="264" height="35" stroke="#082837" stroke-width="2" stroke-miterlimit="8" fill="#FFF3CD"/><text font-family="Malgun Gothic,Malgun Gothic_MSFontService,sans-serif" font-weight="700" font-size="21" transform="translate(707.9 596)">User Embedding</text><rect x="961" y="571" width="265" height="35" stroke="#082837" stroke-width="2" stroke-miterlimit="8" fill="#FFF3CD"/><text font-family="Malgun Gothic,Malgun Gothic_MSFontService,sans-serif" font-weight="700" font-size="21" transform="translate(1006.35 596)">Wine Embedding</text><rect x="223" y="268" width="227" height="35" stroke="#082837" stroke-width="2" stroke-miterlimit="8" fill="#FFF3CD"/><text font-family="Malgun Gothic,Malgun Gothic_MSFontService,sans-serif" font-weight="700" font-size="21" transform="translate(291.337 294)">Add Bias</text><rect x="775" y="457" width="340" height="35" stroke="#082837" stroke-width="2" stroke-miterlimit="8" fill="#FFF3CD"/><text font-family="Malgun Gothic,Malgun Gothic_MSFontService,sans-serif" font-weight="700" font-size="21" transform="translate(838.417 483)">Muti</text><text font-family="Malgun Gothic,Malgun Gothic_MSFontService,sans-serif" font-weight="700" font-size="21" transform="translate(885.917 483)">-</text><text font-family="Malgun Gothic,Malgun Gothic_MSFontService,sans-serif" font-weight="700" font-size="21" transform="translate(894.75 483)">Head Attention</text><text font-family="Malgun Gothic,Malgun Gothic_MSFontService,sans-serif" font-style="oblique" font-weight="700" font-size="21" transform="translate(1163.14 386)">x N</text><rect x="775" y="325" width="340" height="35" stroke="#082837" stroke-width="2" stroke-miterlimit="8" fill="#FFF3CD"/><text font-family="Malgun Gothic,Malgun Gothic_MSFontService,sans-serif" font-weight="700" font-size="21" transform="translate(875.833 351)">Feed Forward</text><path d="M944.167 325.565 944.167 235.167 946.834 235.167 946.833 325.565ZM941.5 236.5 945.5 228.5 949.5 236.5Z"/><path d="M2.87726e-06-1.33333 90.6361-1.33314 90.6361 1.33353-2.87726e-06 1.33333ZM89.3028-3.99981 97.3028 0.000209974 89.3028 4.00019Z" transform="matrix(-1.83697e-16 -1 -1 1.83697e-16 945.5 457.803)"/><text font-family="Malgun Gothic,Malgun Gothic_MSFontService,sans-serif" font-weight="700" font-size="21" transform="translate(423.273 46)">Predicted Rating</text><path d="M185.213 570.067 331.129 383.633 332.704 384.866 186.788 571.3ZM327.944 382.834 336.025 379 334.244 387.765Z"/><path d="M335 343.484 335 309.667 337 309.667 337 343.484ZM332 311 336 303 340 311Z"/><path d="M335 268.484 335 234.667 337 234.667 337 268.484ZM332 236 336 228 340 236Z"/><rect x="775" y="397" width="340" height="35" stroke="#042433" stroke-width="2" stroke-miterlimit="8" fill="#FFF3CD"/><text font-family="Malgun Gothic,Malgun Gothic_MSFontService,sans-serif" font-weight="700" font-size="21" transform="translate(878.417 422)">Add &amp;</text><text font-family="Malgun Gothic,Malgun Gothic_MSFontService,sans-serif" font-weight="700" font-size="21" transform="translate(945.917 422)"></text><text font-family="Malgun Gothic,Malgun Gothic_MSFontService,sans-serif" font-weight="700" font-size="21" transform="translate(953.417 422)">Norm</text><rect x="775" y="264" width="340" height="36" stroke="#082837" stroke-width="2" stroke-miterlimit="8" fill="#FFF3CD"/><text font-family="Malgun Gothic,Malgun Gothic_MSFontService,sans-serif" font-weight="700" font-size="21" transform="translate(878.417 290)">Add &amp;</text><text font-family="Malgun Gothic,Malgun Gothic_MSFontService,sans-serif" font-weight="700" font-size="21" transform="translate(945.917 290)"></text><text font-family="Malgun Gothic,Malgun Gothic_MSFontService,sans-serif" font-weight="700" font-size="21" transform="translate(953.417 290)">Norm</text><path d="M0.62403-0.7814 187.098 148.138 185.85 149.701-0.62403 0.7814ZM187.929 144.962 191.684 153.08 182.936 151.213Z" transform="matrix(-1.83697e-16 -1 -1 1.83697e-16 489.08 570.684)"/><rect x="166" y="457" width="341" height="35" stroke="#082837" stroke-width="2" stroke-miterlimit="8" fill="#FFF3CD"/><text font-family="Malgun Gothic,Malgun Gothic_MSFontService,sans-serif" font-weight="700" font-size="21" transform="translate(294.883 483)">Padding</text><text font-family="Malgun Gothic,Malgun Gothic_MSFontService,sans-serif" font-style="oblique" font-weight="700" font-size="21" transform="translate(388.642 425)">Dot Product</text><rect x="489" y="114" width="303" height="35" stroke="#042433" stroke-width="2" stroke-miterlimit="8" fill="#FFF3CD"/><text font-family="Malgun Gothic,Malgun Gothic_MSFontService,sans-serif" font-weight="700" font-size="21" transform="translate(580.616 139)">SIACF</text><text font-family="Malgun Gothic,Malgun Gothic_MSFontService,sans-serif" font-weight="700" font-size="21" transform="translate(639.116 139)"></text><text font-family="Malgun Gothic,Malgun Gothic_MSFontService,sans-serif" font-weight="700" font-size="21" transform="translate(646.616 139)">Layer</text><path d="M945.1 379.938 759.769 379.938 759.769 281 768.333 281 768.333 283 760.769 283 761.769 282 761.769 378.938 760.769 377.938 945.1 377.938ZM767 278 775 282 767 286Z"/><path d="M944.767 528.632 758.928 528.632 758.928 413 768.333 413 768.333 415 759.928 415 760.928 414 760.928 527.632 759.928 526.632 944.767 526.632ZM767 410 775 414 767 418Z"/><path d="M1.05123e-05-1 43.2687-0.999545 43.2687 1.00045-1.05123e-05 1ZM41.9354-3.99956 49.9353 0.000524934 41.9353 4.00044Z" transform="matrix(-1.83697e-16 -1 -1 1.83697e-16 945.001 541.935)"/><path d="M0 0 153.1 0 153.1 28.3484" stroke="#000000" stroke-width="2" stroke-miterlimit="8" fill="none" fill-rule="evenodd" transform="matrix(-1 1.22465e-16 1.22465e-16 1 945.1 542)"/><path d="M945 542 1093.6 542 1093.6 570.348" stroke="#000000" stroke-width="2" stroke-miterlimit="8" fill="none" fill-rule="evenodd"/><path d="M944.6 509.86 867.079 509.86 867.245 498.609 869.245 498.639 869.094 508.875 868.094 507.86 944.6 507.86ZM864.12 499.496 869 492 872.069 500.401Z"/><path d="M0-1 75.947-1 76.0645 10.2045 74.0646 10.2255 73.9575 0.0104833 74.9574 1 0 1ZM78.9445 8.56472 75.6 16.8602 70.9704 9.20729Z" transform="matrix(1 0 0 -1 945 508.86)"/><path d="M0 0 530.492 56.6827" stroke="#000000" stroke-width="2" stroke-miterlimit="8" fill="none" fill-rule="evenodd" transform="matrix(-1 1.22465e-16 1.22465e-16 1 791.492 606)"/><path d="M261.012 662.683 186 606" stroke="#000000" stroke-width="2" stroke-miterlimit="8" fill="none" fill-rule="evenodd"/><path d="M0 0 226.103 56.6827" stroke="#000000" stroke-width="2" stroke-miterlimit="8" fill="none" fill-rule="evenodd" transform="matrix(-1 1.22465e-16 1.22465e-16 1 1093.1 606)"/><path d="M489 606 866.494 662.683" stroke="#000000" stroke-width="2" stroke-miterlimit="8" fill="none" fill-rule="evenodd"/><path d="M609 36.5C609 20.7599 623.103 8 640.5 8 657.897 8 672 20.7599 672 36.5 672 52.2401 657.897 65 640.5 65 623.103 65 609 52.2401 609 36.5Z" stroke="#082837" stroke-width="2" stroke-miterlimit="8" fill="#F2CFED" fill-rule="evenodd"/><text font-family="Cambria Math,Cambria Math_MSFontService,sans-serif" font-weight="400" font-size="24" transform="translate(628.046 45)">ğ’š</text><text font-family="Cambria Math,Cambria Math_MSFontService,sans-serif" font-weight="400" font-size="24" transform="translate(642.379 45)"></text><text font-family="Cambria Math,Cambria Math_MSFontService,sans-serif" font-weight="400" font-size="24" transform="translate(647.712 45)">Ì‚</text><text font-family="Cambria Math,Cambria Math_MSFontService,sans-serif" font-weight="400" font-size="18" transform="translate(647.712 49)">ğ’–ğ’Š</text><path d="M977 37.5C977 21.7599 991.103 9 1008.5 9 1025.9 9 1040 21.7599 1040 37.5 1040 53.2401 1025.9 66 1008.5 66 991.103 66 977 53.2401 977 37.5Z" stroke="#082837" stroke-width="2" stroke-miterlimit="8" fill="#FFFFFF" fill-rule="evenodd"/><text font-family="Cambria Math,Cambria Math_MSFontService,sans-serif" font-weight="400" font-size="24" transform="translate(995.578 45)">ğ’š</text><text font-family="Cambria Math,Cambria Math_MSFontService,sans-serif" font-weight="400" font-size="18" transform="translate(1009.91 50)">ğ’–ğ’Š</text><text font-family="Cambria Math,Cambria Math_MSFontService,sans-serif" font-weight="400" font-size="24" transform="translate(633.046 98)">ğˆ</text></g></svg>